<?xml version="1.0" encoding="UTF-8"?>
<svg xmlns="http://www.w3.org/2000/svg" version="1.2" baseProfile="tiny-ps"
     width="512" height="512" viewBox="0 0 460.53 446.65">
  <g>
    <path d="M197.49,367.27l60.68,15.87L415.64,113.11c71.78,118.38,10.58,277.2-119.23,320.99C83.38,505.87-91.06,254.1,52.32,80.42,131.09-15.17,277.72-28.14,369.98,55.5l-178.2,203.89-65.12-70.5-58.55,47.28,127.08,133.99,2.3-2.99v.09Z" fill="#8dc637"/>
    <path d="M460.53,30.41s-30.38,56.58-44.98,82.7l-157.46,270.04-60.68-15.87L459.25,29.13s1.28,1.28,1.28,1.28Z" fill="#618a0e"/>
    <polygon points="369.98 55.5 459.25 29.13 195.19 370.26 68.11 236.26 126.74 188.98 191.86 259.48 369.98 55.5" fill="#ffffff"/>
  </g>
</svg>
