<?xml version="1.0" encoding="UTF-8"?>
<svg id="Layer_1" data-name="Layer 1" xmlns="http://www.w3.org/2000/svg" viewBox="0 0 53.96 52.33">
  <g id="Checkmark_Group" data-name="Checkmark Group">
    <path id="CheckBG" d="M23.14,43.03l7.11,1.86,18.45-31.64c8.41,13.87,1.24,32.48-13.97,37.61C9.77,59.27-10.67,29.77,6.13,9.42,15.36-1.78,32.54-3.3,43.35,6.5l-20.88,23.89-7.63-8.26-6.86,5.54,14.89,15.7.27-.35Z" fill="#8dc637"/>
    <path id="CheckShadow" d="M53.96,3.56s-3.56,6.63-5.27,9.69l-18.45,31.64-7.11-1.86S53.81,3.41,53.81,3.41l.15.15Z" fill="#618a0e"/>
    <polygon id="Check" points="43.35 6.5 53.81 3.41 22.87 43.38 7.98 27.68 14.85 22.14 22.48 30.4 43.35 6.5" fill="#fff"/>
  </g>
</svg>