<?xml version="1.0" encoding="UTF-8"?>
<svg id="Layer_2" data-name="Layer 2" xmlns="http://www.w3.org/2000/svg" viewBox="0 0 47.49 47.49">
  <g id="Icons">
    <path d="M23.74,0C10.63,0,0,10.63,0,23.74s10.63,23.74,23.74,23.74,23.74-10.63,23.74-23.74S36.86,0,23.74,0ZM39.57,33.51c-.57,1.31-1.62,3.71-2.04,4.77-.09.22-.22.43-.4.58-4.48,3.89-13.4-.85-20.23-7.68-6.83-6.83-11.56-15.75-7.68-20.23.16-.18.36-.31.58-.4,1.06-.42,3.46-1.46,4.77-2.04.51-.22,1.11-.03,1.39.45l3.99,6.73c.2.33.21.74.02,1.09l-2.48,4.61c-.23.43-.15.96.19,1.3l3.85,3.85,3.85,3.85c.34.34.87.42,1.3.19l4.61-2.48c.34-.18.75-.17,1.09.02l6.73,3.99c.48.28.67.88.45,1.39Z" style="fill: #8dc637;"/>
  </g>
</svg>