<?xml version="1.0" encoding="UTF-8"?>
<svg id="Layer_2" data-name="Layer 2" xmlns="http://www.w3.org/2000/svg" viewBox="0 0 47.49 47.49">
  <g id="Icons">
    <path d="M23.74,0C10.63,0,0,10.63,0,23.74s10.63,23.74,23.74,23.74,23.74-10.63,23.74-23.74S36.86,0,23.74,0ZM8.01,12.14c.48-.48,1.12-.76,1.84-.76h27.79c.72,0,1.37.29,1.84.76.08.08.16.18.23.27l-14.57,12.69c-.4.35-.9.53-1.4.53s-1-.17-1.4-.53L7.78,12.41c.06-.09.14-.18.23-.27ZM7.24,33.5V15.24l10.54,9.2-10.53,9.19s0-.07,0-.11ZM37.64,36.11H9.85c-.47,0-.91-.12-1.29-.34l11.12-9.69,1.04.9c.87.75,1.96,1.14,3.03,1.14s2.17-.38,3.04-1.14l1.04-.9,11.11,9.69c-.38.22-.82.34-1.29.34ZM40.24,33.5s0,.08,0,.11l-10.53-9.18,10.54-9.2v18.26Z" style="fill: #8dc637;"/>
  </g>
</svg>