<?xml version="1.0" encoding="UTF-8"?>
<svg id="Layer_2" data-name="Layer 2" xmlns="http://www.w3.org/2000/svg" viewBox="0 0 47.49 47.49">
  <g id="Icons">
    <g>
      <path d="M35.32,19.01l-.34-.38-.07-.61-.35.19-.19.74-.51-.54-.02-.51-.49-.42-.18-.18h-.57l.18.51.69.38.12.13-.15.07v.4s-.33.14-.33.14l-.28-.06-.18-.25.46.02.13-.17-1.03-.69-.08-.29-.42.38-.42-.09-.64.84-.13.33-.41.04h-.61s-.36-.17-.36-.17l-.11-.72.13-.34.62-.14.68.14.08-.37-.29-.07.05-.28-.15.18-.46.04h-.34l.04-.41.29-.06-.02-.19-.27-.17-.19-.13v-.19l.11-.17.39-.08.1.47.21.33.14.16.19.07.03-.17.68-.11.48-.67.49-.08.44.07h.16l-.09-.63-.54.22-.19-.47-.31-.04-.06-.32.26-.28.61-.24.16-.28c-2.32-2.04-5.36-3.29-8.69-3.29-2.89,0-5.56.94-7.73,2.52h.66s.3.16.3.16l.56.12.04.22.89.03-.12-.28-.79-.02.18-.17-.06-.21h-.71l.78-.58h.74l.35.48.58.03.35-.34.26.13-.48.47s-.67.01-.63.01.05.46.05.46l.81-.02.09-.22.56-.03.07-.33-.33-.06.11-.29.25-.08.87.04-.48.44.08.34.5.08-.03-.61.48-.25.85-.1,1.24.55v.47l.39.1-.2.37h-.56l-.17.43-1.27-.3,1-.53-.38-.32-.86.11-.08.08h0s-.01.02-.01.02l-.25.26-.41.03.03.21.14.06v.07s-.34.05-.34.05l-.02.19-.32.02-.06-.39-.57.17-1.17.69.13.48.33.21.66.09v.75l.3-.05.28-.58.7-.22v-.89l.39-.29.94.22-.07.59h.25l.69-.34.03.78.5.31-.02.46-.48.16.03.15.58.26v.32s-.18.01-.18.01c0,0,0,0,0,0l-.73-.23-.03-.23h0l.21-.15v-.21l-.23-.06-.06.2-.4.06h-.04s0,0,0,0l-.14.02-.11-.23-.13-.06h-.29l-.13.11v.24l.25.08.24.03-.05.02-.22.25-.1-.12-.21-.06-.58.55.08.06-.86.48-.81.84-.06.38-.81.53-.4.4.04.81-.56-.26v-.47s-1.55,0-1.55,0l-.8.41-.35.64-.14.51.23.49.63.08,1.01-.67.09.33-.31.58.77.13.08,1.18,1.05.18.67-.77.81.16.28.4.78-.05.02-.23.43.21.48.75h.83s.31.55.31.55l.04.66.92.35h1.16s.34.57.34.57l.51.16-.1.46-.56.72-.16,1.58-.51.4-.75-.02-.25.44.19.82-.82,1.05-.26.48-.78.38-.51.08-.02.22.36.1-.04.23-.32.31.2.25h.39s-.02.31-.02.31l-.1.29-.03.24.58.48-.08.25h-.78s-.78-.69-.78-.69l-.61-1.07.08-1.03-.46-.61.19-1.04-.27-.08v-2.25s-.77-.58-.81-.58-.41-.1-.41-.1l-.08-.43-1-1.25.1-.45.03-.73.69-.48-.1-.82-1.01-.08-.79-.9-.56-.15-.36-.07.04-.33-.46-.07v.19l-1.15-.28-.46-.71.19-.34-.73-1.06-.12-.78h-.29l.1.75.5.78-.05.31-.43-.07-.52-.89v-1.04l-.55-.26v-.75c.14-.34.3-.66.47-.98l.55-.66-.02-.24c-.19.29-.36.59-.53.9l-.47.57v.41c-.68,1.58-1.05,3.32-1.05,5.15,0,7.25,5.9,13.16,13.16,13.16,4.11,0,7.79-1.9,10.2-4.86h-.43v-.87l-.5-.68v-1.05l-.38-.38-.03-.44.49-.93-.92-1.63.11-1.11-.83-.09-.31-.31h-.56l-.28.26h-.98l-.03.09h-.55l-1.26-1.43v-1.12s.22-.08.22-.08l.08-.43h-.29l-.12-.45,1.45-1.05v-.74l.71-.4.29.03h.59l.46-.25,1.48-.11v.75l1.17.3.23.16h.21v-.41l.67-.07.64.48h1.05l.07-.07c-.1-.35-.22-.7-.36-1.04h-.69ZM28.55,17.08v-.25l.24-.38.32-.07.23.1-.02.26-.49.34h-.28Z" style="fill: #8dc637;"/>
      <path d="M23.74,0C10.63,0,0,10.63,0,23.74s10.63,23.74,23.74,23.74,23.74-10.63,23.74-23.74S36.86,0,23.74,0ZM38.83,26.42c-.05.31-.12.61-.19.91-.28,1.18-.71,2.31-1.25,3.37-2.54,4.96-7.7,8.36-13.64,8.36-8.45,0-15.32-6.87-15.32-15.32,0-3.52,1.2-6.76,3.2-9.35.53-.69,1.12-1.33,1.75-1.91,2.73-2.52,6.38-4.06,10.37-4.06s7.58,1.51,10.31,3.99c.24.22.47.45.7.68.08.08.16.17.24.25,1.2,1.29,2.18,2.79,2.87,4.44.04.1.08.2.12.29.52,1.31.87,2.71,1.01,4.17.04.44.06.88.07,1.33,0,.05,0,.11,0,.16,0,.91-.08,1.81-.24,2.68Z" style="fill: #8dc637;"/>
    </g>
  </g>
</svg>